PathFileType	4	(X/Y/Z)	D:\TRACE\v60_Jaco2_6-2-23\BothDRS_Motion3_5-v60.trc
DataRate	CameraRate	NumFrames	NumMarkers	Units	OrigDataRate	OrigDataStartFrame	OrigNumFrames
100.00	100.00	      14	9	mm	100.00	4376	      7000
Frame#	Time	front left toe			Front right toe			aft left toe			aft right toe			Arm			FL body			FR body			AL Body			AR Body			
		X1	Y1	Z1	X2	Y2	Z2	X3	Y3	Z3	X4	Y4	Z4	X5	Y5	Z5	X6	Y6	Z6	X7	Y7	Z7	X8	Y8	Z8	X9	Y9	Z9	

4376	43.750	-96.67446	-6.83100	-183.89874	275.00436	18.63893	-128.76044	-87.11036	85.68793	476.96472	265.49399	56.59867	436.46637	100.38440	1023.64954	-662.54321	24.61338	470.61584	-346.07596	182.97403	467.76749	-340.60434	4.48568	646.08490	581.79541	156.30713	634.01306	587.31543	
4377	43.760	-96.65205	-7.08251	-183.99414	274.82227	31.16351	-131.49571	-86.05172	96.45844	473.89395	265.48569	56.65315	437.42886	100.18403	1023.53198	-663.50977	24.63279	470.76483	-347.69659	182.52428	468.30023	-342.01111	4.36701	645.85138	580.60950	155.07932	633.60590	585.83655	
4378	43.770	-96.59622	-7.86365	-183.50172	276.90952	42.86338	-135.23006	-88.66277	108.29716	470.15195	265.61780	56.37094	437.28122	100.13631	1023.63361	-664.67365	24.62993	470.32248	-348.91116	182.29396	468.07224	-343.32907	4.08492	645.07336	579.33069	155.34920	632.87677	584.62378	
4379	43.780	-96.60860	-8.11407	-183.35822	278.89227	55.48351	-139.75429	-91.62694	119.80595	464.94376	265.83902	55.69910	437.34009	99.58517	1023.96124	-665.51788	24.21951	470.11945	-350.13269	182.31320	467.47360	-344.72116	3.91664	644.08032	578.25787	155.28059	632.02374	583.27863	
4380	43.790	-96.56795	-8.15460	-183.43282	281.52536	67.36294	-144.57089	-94.66177	131.17819	459.08063	265.95105	55.42109	437.16464	98.82281	1024.27869	-666.12872	24.69208	469.69748	-351.20770	182.01743	467.79846	-346.12567	4.00655	642.96564	576.84497	155.94675	631.26715	582.69257	
4381	43.800	-96.50569	-8.08013	-183.39055	283.41760	78.99353	-150.11017	-97.29369	142.89880	452.72192	265.99960	55.21334	437.18610	98.69519	1024.60938	-666.77570	24.24649	469.92203	-352.59982	182.01125	467.79309	-347.34720	4.48917	641.80444	575.90393	155.93665	630.09039	580.87903	
4382	43.810	-96.36707	-8.02255	-183.52124	284.88440	89.83842	-155.87000	-98.55663	153.99260	446.63861	266.07318	54.94519	437.17941	97.46149	1025.31775	-667.36359	24.14708	470.00208	-354.06281	181.84293	468.18353	-349.00586	4.94927	640.88330	574.55713	156.32394	629.08295	579.74438	
4383	43.820	-96.26197	-7.98022	-183.50658	285.71045	99.87486	-161.27948	-99.07465	164.39243	440.76315	266.29987	54.69168	437.30505	96.51675	1026.21179	-668.31561	23.94387	470.48233	-355.32312	181.82536	468.14243	-350.60657	5.37924	639.96716	573.72321	155.71693	628.41815	578.30792	
4384	43.830	-96.18990	-7.94639	-183.60051	286.65598	109.32280	-166.93954	-98.75180	173.02478	435.10263	266.82300	54.32850	437.18158	95.96645	1026.78857	-668.81207	23.88069	470.66953	-356.87701	182.00096	468.27963	-351.75497	5.94921	639.03967	572.49591	157.07852	627.09760	577.47272	
4385	43.840	-96.10653	-7.90590	-183.51271	287.84152	117.15957	-172.44427	-98.75730	179.38510	430.61771	267.24265	54.14478	437.20081	95.32506	1027.42798	-669.47003	24.24847	470.60269	-357.56570	182.55673	468.35492	-353.41492	6.57587	638.21564	571.34869	157.74159	626.51196	576.11017	
4386	43.850	-95.98433	-7.80759	-183.45074	290.13474	121.56853	-176.85136	-97.14393	182.96985	426.26920	267.37952	54.07798	437.21320	95.13525	1028.13928	-670.06677	23.84711	471.12613	-359.27213	182.36653	468.74188	-354.70828	7.10716	637.63141	570.37158	158.66612	625.85870	574.92365	
4387	43.860	-95.76782	-7.75683	-183.43217	290.57617	122.69640	-181.41106	-96.84056	184.30278	423.39185	267.21442	53.27121	436.56451	95.19041	1028.94104	-670.61462	23.94714	471.40527	-360.30179	182.20062	468.98312	-355.91620	8.32400	636.88300	569.24078	159.20345	625.40582	573.70203	
4388	43.870	-95.50941	-7.66088	-183.42752	291.70364	120.81622	-184.96724	-96.18874	182.92334	420.54837	267.79092	53.81530	437.05417	95.08808	1029.66785	-671.77167	23.37513	471.93185	-361.42609	181.79591	469.48651	-357.57523	9.11792	636.60077	568.49646	160.57443	624.82910	572.67432	
4389	43.880	-95.29144	-7.53753	-183.43123	292.26334	116.60343	-188.49484	-95.38302	178.67627	418.16406	268.06125	53.42727	437.01959	95.06118	1030.30566	-672.19232	23.31632	472.08932	-362.83047	180.48138	470.21829	-358.71631	10.29296	636.05695	567.46893	161.14758	624.51422	571.29291	
